<mxfile host="app.diagrams.net" modified="2024-06-12T14:31:17.981Z" agent="Mozilla/5.0 (Windows NT 10.0; Win64; x64; rv:126.0) Gecko/20100101 Firefox/126.0" etag="K-LtJ4zXIK2fHWjPHTXE" version="24.5.2" type="device">
  <diagram name="Page-1" id="74e2e168-ea6b-b213-b513-2b3c1d86103e">
    <mxGraphModel dx="819" dy="426" grid="1" gridSize="10" guides="1" tooltips="1" connect="1" arrows="1" fold="1" page="0" pageScale="1" pageWidth="1100" pageHeight="850" background="#FFFFFF" math="0" shadow="0">
      <root>
        <mxCell id="0" />
        <mxCell id="1" parent="0" />
        <mxCell id="tXQdEWdfQbnc47CWB7LX-1" value="&lt;b&gt;&lt;font style=&quot;font-size: 22px;&quot;&gt;Asset&lt;/font&gt;&lt;/b&gt;" style="rounded=0;whiteSpace=wrap;html=1;labelBackgroundColor=none;fillColor=#00CC00;" parent="1" vertex="1">
          <mxGeometry x="470" y="270" width="120" height="60" as="geometry" />
        </mxCell>
        <mxCell id="tXQdEWdfQbnc47CWB7LX-4" value="&lt;div&gt;Is&lt;/div&gt;" style="rhombus;whiteSpace=wrap;html=1;rounded=0;labelBackgroundColor=none;fillColor=#CC99FF;" parent="1" vertex="1">
          <mxGeometry x="360" y="170" width="60" height="60" as="geometry" />
        </mxCell>
        <mxCell id="tXQdEWdfQbnc47CWB7LX-5" value="&lt;font style=&quot;font-size: 14px;&quot;&gt;Acquisition Event&lt;b&gt;&lt;br&gt;&lt;/b&gt;&lt;/font&gt;" style="rounded=0;whiteSpace=wrap;html=1;labelBackgroundColor=none;fillColor=#00CC00;" parent="1" vertex="1">
          <mxGeometry x="170" y="270" width="120" height="60" as="geometry" />
        </mxCell>
        <mxCell id="tXQdEWdfQbnc47CWB7LX-6" value="&lt;div&gt;Has&lt;/div&gt;" style="rhombus;whiteSpace=wrap;html=1;rounded=0;labelBackgroundColor=none;fillColor=#CC99FF;" parent="1" vertex="1">
          <mxGeometry x="650" y="270" width="60" height="60" as="geometry" />
        </mxCell>
        <mxCell id="tXQdEWdfQbnc47CWB7LX-7" value="&lt;font style=&quot;font-size: 20px;&quot;&gt;Tags&lt;/font&gt;" style="rounded=0;whiteSpace=wrap;html=1;labelBackgroundColor=none;fillColor=#00CC00;" parent="1" vertex="1">
          <mxGeometry x="770" y="270" width="120" height="60" as="geometry" />
        </mxCell>
        <mxCell id="tXQdEWdfQbnc47CWB7LX-9" value="" style="endArrow=none;html=1;rounded=0;entryX=0;entryY=0.5;entryDx=0;entryDy=0;exitX=1;exitY=0.5;exitDx=0;exitDy=0;labelBackgroundColor=none;fontColor=default;" parent="1" target="tXQdEWdfQbnc47CWB7LX-1" edge="1">
          <mxGeometry width="50" height="50" relative="1" as="geometry">
            <mxPoint x="410" y="299.5" as="sourcePoint" />
            <mxPoint x="480" y="299.5" as="targetPoint" />
          </mxGeometry>
        </mxCell>
        <mxCell id="tXQdEWdfQbnc47CWB7LX-11" value="" style="endArrow=none;html=1;rounded=0;entryX=0;entryY=0.5;entryDx=0;entryDy=0;exitX=1;exitY=0.5;exitDx=0;exitDy=0;labelBackgroundColor=none;fontColor=default;" parent="1" source="tXQdEWdfQbnc47CWB7LX-1" edge="1">
          <mxGeometry width="50" height="50" relative="1" as="geometry">
            <mxPoint x="580" y="299.5" as="sourcePoint" />
            <mxPoint x="650" y="299.5" as="targetPoint" />
          </mxGeometry>
        </mxCell>
        <mxCell id="tXQdEWdfQbnc47CWB7LX-12" value="" style="endArrow=none;html=1;rounded=0;entryX=0;entryY=0.5;entryDx=0;entryDy=0;exitX=1;exitY=0.5;exitDx=0;exitDy=0;labelBackgroundColor=none;fontColor=default;" parent="1" target="tXQdEWdfQbnc47CWB7LX-7" edge="1">
          <mxGeometry width="50" height="50" relative="1" as="geometry">
            <mxPoint x="710" y="299.5" as="sourcePoint" />
            <mxPoint x="780" y="299.5" as="targetPoint" />
          </mxGeometry>
        </mxCell>
        <mxCell id="tXQdEWdfQbnc47CWB7LX-14" value="0066CC" style="rounded=0;whiteSpace=wrap;html=1;labelBackgroundColor=none;fillColor=#FF8000;" parent="1" vertex="1">
          <mxGeometry x="470" y="60" width="120" height="80" as="geometry" />
        </mxCell>
        <mxCell id="tXQdEWdfQbnc47CWB7LX-15" value="&lt;font style=&quot;font-size: 20px;&quot;&gt;Condo&lt;font style=&quot;font-size: 20px;&quot;&gt;&lt;br&gt;&lt;/font&gt;&lt;/font&gt;" style="rhombus;whiteSpace=wrap;html=1;rounded=0;labelBackgroundColor=none;fillColor=#FF8000;" parent="1" vertex="1">
          <mxGeometry x="470" y="60" width="120" height="80" as="geometry" />
        </mxCell>
        <mxCell id="tXQdEWdfQbnc47CWB7LX-26" value="&lt;font style=&quot;font-size: 16px;&quot;&gt;1&lt;/font&gt;" style="text;html=1;align=center;verticalAlign=middle;resizable=0;points=[];autosize=1;strokeColor=none;fillColor=none;rounded=0;labelBackgroundColor=none;" parent="1" vertex="1">
          <mxGeometry x="305" y="270" width="30" height="30" as="geometry" />
        </mxCell>
        <mxCell id="tXQdEWdfQbnc47CWB7LX-28" value="" style="endArrow=none;html=1;rounded=0;entryX=0;entryY=0.5;entryDx=0;entryDy=0;exitX=1;exitY=0.5;exitDx=0;exitDy=0;labelBackgroundColor=none;fontColor=default;" parent="1" edge="1">
          <mxGeometry width="50" height="50" relative="1" as="geometry">
            <mxPoint x="290" y="299.5" as="sourcePoint" />
            <mxPoint x="350" y="300" as="targetPoint" />
          </mxGeometry>
        </mxCell>
        <mxCell id="tXQdEWdfQbnc47CWB7LX-29" value="&lt;font style=&quot;font-size: 16px;&quot;&gt;N&lt;/font&gt;" style="text;html=1;align=center;verticalAlign=middle;resizable=0;points=[];autosize=1;strokeColor=none;fillColor=none;rounded=0;labelBackgroundColor=none;" parent="1" vertex="1">
          <mxGeometry x="415" y="270" width="40" height="30" as="geometry" />
        </mxCell>
        <mxCell id="tXQdEWdfQbnc47CWB7LX-35" value="&lt;font style=&quot;font-size: 16px;&quot;&gt;M&lt;/font&gt;" style="text;html=1;align=center;verticalAlign=middle;resizable=0;points=[];autosize=1;strokeColor=none;fillColor=none;rounded=0;labelBackgroundColor=none;" parent="1" vertex="1">
          <mxGeometry x="715" y="270" width="40" height="30" as="geometry" />
        </mxCell>
        <mxCell id="tXQdEWdfQbnc47CWB7LX-36" value="&lt;div&gt;Gets&lt;/div&gt;" style="rhombus;whiteSpace=wrap;html=1;rounded=0;labelBackgroundColor=none;fillColor=#CC99FF;" parent="1" vertex="1">
          <mxGeometry x="350" y="270" width="60" height="60" as="geometry" />
        </mxCell>
        <mxCell id="tXQdEWdfQbnc47CWB7LX-37" value="&lt;div&gt;Has&lt;br&gt;&lt;/div&gt;" style="rhombus;whiteSpace=wrap;html=1;rounded=0;labelBackgroundColor=none;fillColor=#CC99FF;" parent="1" vertex="1">
          <mxGeometry x="635" y="170" width="60" height="60" as="geometry" />
        </mxCell>
        <mxCell id="tXQdEWdfQbnc47CWB7LX-41" value="" style="endArrow=none;dashed=1;html=1;rounded=0;exitX=0.5;exitY=0;exitDx=0;exitDy=0;entryX=0;entryY=0.5;entryDx=0;entryDy=0;labelBackgroundColor=none;fontColor=default;" parent="1" source="tXQdEWdfQbnc47CWB7LX-4" target="tXQdEWdfQbnc47CWB7LX-14" edge="1">
          <mxGeometry width="50" height="50" relative="1" as="geometry">
            <mxPoint x="405" y="150" as="sourcePoint" />
            <mxPoint x="455" y="100" as="targetPoint" />
            <Array as="points">
              <mxPoint x="390" y="100" />
            </Array>
          </mxGeometry>
        </mxCell>
        <mxCell id="tXQdEWdfQbnc47CWB7LX-43" value="" style="endArrow=none;dashed=1;html=1;rounded=0;entryX=1;entryY=0.5;entryDx=0;entryDy=0;exitX=0.5;exitY=0;exitDx=0;exitDy=0;labelBackgroundColor=none;fontColor=default;" parent="1" source="tXQdEWdfQbnc47CWB7LX-37" target="tXQdEWdfQbnc47CWB7LX-14" edge="1">
          <mxGeometry width="50" height="50" relative="1" as="geometry">
            <mxPoint x="645" y="150" as="sourcePoint" />
            <mxPoint x="695" y="100" as="targetPoint" />
            <Array as="points">
              <mxPoint x="665" y="100" />
            </Array>
          </mxGeometry>
        </mxCell>
        <mxCell id="tXQdEWdfQbnc47CWB7LX-44" value="" style="endArrow=none;dashed=1;html=1;rounded=0;entryX=0.25;entryY=0;entryDx=0;entryDy=0;labelBackgroundColor=none;fontColor=default;" parent="1" target="tXQdEWdfQbnc47CWB7LX-1" edge="1">
          <mxGeometry width="50" height="50" relative="1" as="geometry">
            <mxPoint x="420" y="200" as="sourcePoint" />
            <mxPoint x="470" y="150" as="targetPoint" />
            <Array as="points">
              <mxPoint x="500" y="200" />
            </Array>
          </mxGeometry>
        </mxCell>
        <mxCell id="tXQdEWdfQbnc47CWB7LX-45" value="" style="endArrow=none;dashed=1;html=1;rounded=0;exitX=0.75;exitY=0;exitDx=0;exitDy=0;labelBackgroundColor=none;fontColor=default;" parent="1" source="tXQdEWdfQbnc47CWB7LX-1" edge="1">
          <mxGeometry width="50" height="50" relative="1" as="geometry">
            <mxPoint x="585" y="250" as="sourcePoint" />
            <mxPoint x="635" y="200" as="targetPoint" />
            <Array as="points">
              <mxPoint x="560" y="200" />
            </Array>
          </mxGeometry>
        </mxCell>
        <mxCell id="tXQdEWdfQbnc47CWB7LX-46" value="&lt;font style=&quot;font-size: 16px;&quot;&gt;1&lt;/font&gt;" style="text;html=1;align=center;verticalAlign=middle;resizable=0;points=[];autosize=1;strokeColor=none;fillColor=none;rounded=0;labelBackgroundColor=none;" parent="1" vertex="1">
          <mxGeometry x="400" y="70" width="30" height="30" as="geometry" />
        </mxCell>
        <mxCell id="tXQdEWdfQbnc47CWB7LX-47" value="&lt;font style=&quot;font-size: 16px;&quot;&gt;1&lt;/font&gt;" style="text;html=1;align=center;verticalAlign=middle;resizable=0;points=[];autosize=1;strokeColor=none;fillColor=none;rounded=0;labelBackgroundColor=none;" parent="1" vertex="1">
          <mxGeometry x="450" y="170" width="30" height="30" as="geometry" />
        </mxCell>
        <mxCell id="tXQdEWdfQbnc47CWB7LX-51" value="&lt;font style=&quot;font-size: 16px;&quot;&gt;1&lt;/font&gt;" style="text;html=1;align=center;verticalAlign=middle;resizable=0;points=[];autosize=1;strokeColor=none;fillColor=none;rounded=0;labelBackgroundColor=none;" parent="1" vertex="1">
          <mxGeometry x="620" y="70" width="30" height="30" as="geometry" />
        </mxCell>
        <mxCell id="tXQdEWdfQbnc47CWB7LX-55" value="&lt;font style=&quot;font-size: 16px;&quot;&gt;N&lt;/font&gt;" style="text;html=1;align=center;verticalAlign=middle;resizable=0;points=[];autosize=1;strokeColor=none;fillColor=none;rounded=0;labelBackgroundColor=none;" parent="1" vertex="1">
          <mxGeometry x="575" y="170" width="40" height="30" as="geometry" />
        </mxCell>
        <mxCell id="tXQdEWdfQbnc47CWB7LX-59" value="&lt;font style=&quot;font-size: 15px;&quot;&gt;Organization&lt;/font&gt;" style="ellipse;whiteSpace=wrap;html=1;rounded=0;labelBackgroundColor=none;fillColor=#66B2FF;" parent="1" vertex="1">
          <mxGeometry x="890" y="395" width="90" height="60" as="geometry" />
        </mxCell>
        <mxCell id="tXQdEWdfQbnc47CWB7LX-60" value="&lt;font style=&quot;font-size: 15px;&quot;&gt;ID String&lt;font style=&quot;font-size: 15px;&quot;&gt;&lt;br&gt;&lt;/font&gt;&lt;/font&gt;" style="ellipse;whiteSpace=wrap;html=1;rounded=0;labelBackgroundColor=none;fillColor=#66B2FF;" parent="1" vertex="1">
          <mxGeometry x="890" y="470" width="90" height="60" as="geometry" />
        </mxCell>
        <mxCell id="tXQdEWdfQbnc47CWB7LX-77" value="" style="endArrow=none;html=1;rounded=0;exitX=1;exitY=0.5;exitDx=0;exitDy=0;labelBackgroundColor=none;fontColor=default;" parent="1" source="tXQdEWdfQbnc47CWB7LX-57" edge="1">
          <mxGeometry width="50" height="50" relative="1" as="geometry">
            <mxPoint x="160" y="380" as="sourcePoint" />
            <mxPoint x="210" y="330" as="targetPoint" />
            <Array as="points">
              <mxPoint x="210" y="380" />
            </Array>
          </mxGeometry>
        </mxCell>
        <mxCell id="tXQdEWdfQbnc47CWB7LX-78" value="" style="endArrow=none;html=1;rounded=0;exitX=1;exitY=0.5;exitDx=0;exitDy=0;labelBackgroundColor=none;fontColor=default;" parent="1" source="tXQdEWdfQbnc47CWB7LX-58" edge="1">
          <mxGeometry width="50" height="50" relative="1" as="geometry">
            <mxPoint x="180" y="380" as="sourcePoint" />
            <mxPoint x="230" y="330" as="targetPoint" />
            <Array as="points">
              <mxPoint x="230" y="450" />
            </Array>
          </mxGeometry>
        </mxCell>
        <mxCell id="tXQdEWdfQbnc47CWB7LX-79" value="" style="endArrow=none;html=1;rounded=0;exitX=1;exitY=0.5;exitDx=0;exitDy=0;labelBackgroundColor=none;fontColor=default;" parent="1" source="tXQdEWdfQbnc47CWB7LX-56" edge="1">
          <mxGeometry width="50" height="50" relative="1" as="geometry">
            <mxPoint x="205" y="380" as="sourcePoint" />
            <mxPoint x="255" y="330" as="targetPoint" />
            <Array as="points">
              <mxPoint x="255" y="520" />
            </Array>
          </mxGeometry>
        </mxCell>
        <mxCell id="tXQdEWdfQbnc47CWB7LX-80" value="" style="endArrow=none;html=1;rounded=0;exitX=0;exitY=0.5;exitDx=0;exitDy=0;labelBackgroundColor=none;fontColor=default;" parent="1" source="tXQdEWdfQbnc47CWB7LX-59" edge="1">
          <mxGeometry width="50" height="50" relative="1" as="geometry">
            <mxPoint x="805" y="380" as="sourcePoint" />
            <mxPoint x="855" y="330" as="targetPoint" />
            <Array as="points">
              <mxPoint x="855" y="425" />
            </Array>
          </mxGeometry>
        </mxCell>
        <mxCell id="tXQdEWdfQbnc47CWB7LX-81" value="" style="endArrow=none;html=1;rounded=0;exitX=0;exitY=0.5;exitDx=0;exitDy=0;labelBackgroundColor=none;fontColor=default;" parent="1" source="tXQdEWdfQbnc47CWB7LX-60" edge="1">
          <mxGeometry width="50" height="50" relative="1" as="geometry">
            <mxPoint x="790" y="380" as="sourcePoint" />
            <mxPoint x="840" y="330" as="targetPoint" />
            <Array as="points">
              <mxPoint x="840" y="500" />
            </Array>
          </mxGeometry>
        </mxCell>
        <mxCell id="tXQdEWdfQbnc47CWB7LX-115" value="" style="swimlane;startSize=0;rounded=0;labelBackgroundColor=none;" parent="1" vertex="1">
          <mxGeometry y="40" width="1040" height="600" as="geometry" />
        </mxCell>
        <mxCell id="jQuc2lfNtw6ME2mYDLK6-1" value="&lt;font style=&quot;font-size: 16px;&quot;&gt;N&lt;/font&gt;" style="text;html=1;align=center;verticalAlign=middle;resizable=0;points=[];autosize=1;strokeColor=none;fillColor=none;rounded=0;labelBackgroundColor=none;" parent="tXQdEWdfQbnc47CWB7LX-115" vertex="1">
          <mxGeometry x="610" y="230" width="40" height="30" as="geometry" />
        </mxCell>
        <mxCell id="tXQdEWdfQbnc47CWB7LX-57" value="&#xa;&lt;font style=&quot;font-size: 16px;&quot;&gt;Date&lt;/font&gt;&#xa;&#xa;" style="ellipse;whiteSpace=wrap;html=1;rounded=0;labelBackgroundColor=none;fillColor=#66B2FF;" parent="tXQdEWdfQbnc47CWB7LX-115" vertex="1">
          <mxGeometry x="60" y="310" width="90" height="60" as="geometry" />
        </mxCell>
        <mxCell id="tXQdEWdfQbnc47CWB7LX-58" value="&#xa;&lt;font style=&quot;font-size: 16px;&quot;&gt;Reason&lt;/font&gt;&#xa;&#xa;" style="ellipse;whiteSpace=wrap;html=1;rounded=0;labelBackgroundColor=none;fillColor=#66B2FF;" parent="tXQdEWdfQbnc47CWB7LX-115" vertex="1">
          <mxGeometry x="60" y="380" width="90" height="60" as="geometry" />
        </mxCell>
        <mxCell id="tXQdEWdfQbnc47CWB7LX-56" value="&#xa;&lt;font style=&quot;font-size: 16px;&quot;&gt;Owner&lt;/font&gt;&#xa;&#xa;" style="ellipse;whiteSpace=wrap;html=1;rounded=0;labelBackgroundColor=none;fillColor=#66B2FF;" parent="tXQdEWdfQbnc47CWB7LX-115" vertex="1">
          <mxGeometry x="60" y="450" width="90" height="60" as="geometry" />
        </mxCell>
        <mxCell id="PmIRj_t8G00yRO6Npbwz-1" value="&lt;font style=&quot;font-size: 16px;&quot;&gt;Fabrication&lt;/font&gt;" style="ellipse;whiteSpace=wrap;html=1;rounded=0;labelBackgroundColor=none;fillColor=#66B2FF;" parent="tXQdEWdfQbnc47CWB7LX-115" vertex="1">
          <mxGeometry x="60" y="520" width="90" height="60" as="geometry" />
        </mxCell>
        <mxCell id="PmIRj_t8G00yRO6Npbwz-2" value="&lt;u&gt;&lt;font style=&quot;font-size: 16px;&quot;&gt;PO #&lt;/font&gt;&lt;/u&gt;" style="ellipse;whiteSpace=wrap;html=1;rounded=0;labelBackgroundColor=none;fillColor=#66B2FF;" parent="tXQdEWdfQbnc47CWB7LX-115" vertex="1">
          <mxGeometry x="60" y="240" width="90" height="60" as="geometry" />
        </mxCell>
        <mxCell id="PmIRj_t8G00yRO6Npbwz-12" value="" style="endArrow=none;html=1;rounded=0;exitX=1;exitY=0.5;exitDx=0;exitDy=0;" parent="tXQdEWdfQbnc47CWB7LX-115" source="PmIRj_t8G00yRO6Npbwz-1" edge="1">
          <mxGeometry width="50" height="50" relative="1" as="geometry">
            <mxPoint x="230" y="340" as="sourcePoint" />
            <mxPoint x="280" y="290" as="targetPoint" />
            <Array as="points">
              <mxPoint x="280" y="551" />
            </Array>
          </mxGeometry>
        </mxCell>
        <mxCell id="tXQdEWdfQbnc47CWB7LX-87" value="&lt;font style=&quot;font-size: 16px;&quot;&gt;&lt;u&gt;Serial #&lt;br&gt;&lt;/u&gt;&lt;/font&gt;" style="ellipse;whiteSpace=wrap;html=1;rounded=0;labelBackgroundColor=none;fillColor=#66B2FF;" parent="tXQdEWdfQbnc47CWB7LX-115" vertex="1">
          <mxGeometry x="300" y="385" width="70" height="55" as="geometry" />
        </mxCell>
        <mxCell id="PmIRj_t8G00yRO6Npbwz-27" value="" style="endArrow=none;html=1;rounded=0;entryX=1;entryY=0.5;entryDx=0;entryDy=0;" parent="tXQdEWdfQbnc47CWB7LX-115" target="PmIRj_t8G00yRO6Npbwz-2" edge="1">
          <mxGeometry width="50" height="50" relative="1" as="geometry">
            <mxPoint x="170" y="270" as="sourcePoint" />
            <mxPoint x="220" y="220" as="targetPoint" />
          </mxGeometry>
        </mxCell>
        <mxCell id="PmIRj_t8G00yRO6Npbwz-29" value="&lt;font style=&quot;font-size: 16px;&quot;&gt;Identifier&lt;u&gt;&lt;br&gt;&lt;/u&gt;&lt;/font&gt;" style="ellipse;whiteSpace=wrap;html=1;rounded=0;labelBackgroundColor=none;fillColor=#66B2FF;" parent="tXQdEWdfQbnc47CWB7LX-115" vertex="1">
          <mxGeometry x="380" y="385" width="70" height="55" as="geometry" />
        </mxCell>
        <mxCell id="PmIRj_t8G00yRO6Npbwz-30" value="&lt;span style=&quot;font-size: 16px;&quot;&gt;Model&lt;/span&gt;&lt;u style=&quot;font-size: 16px;&quot;&gt;&lt;br&gt;&lt;/u&gt;" style="ellipse;whiteSpace=wrap;html=1;rounded=0;labelBackgroundColor=none;fillColor=#66B2FF;" parent="tXQdEWdfQbnc47CWB7LX-115" vertex="1">
          <mxGeometry x="460" y="385" width="70" height="60" as="geometry" />
        </mxCell>
        <mxCell id="PmIRj_t8G00yRO6Npbwz-55" value="&lt;div style=&quot;font-size: 16px;&quot;&gt;Location&lt;/div&gt;" style="ellipse;whiteSpace=wrap;html=1;rounded=0;labelBackgroundColor=none;fillColor=#66B2FF;" parent="tXQdEWdfQbnc47CWB7LX-115" vertex="1">
          <mxGeometry x="540" y="385" width="70" height="55" as="geometry" />
        </mxCell>
        <mxCell id="PmIRj_t8G00yRO6Npbwz-56" value="&lt;div style=&quot;font-size: 16px;&quot;&gt;Purpose&lt;/div&gt;" style="ellipse;whiteSpace=wrap;html=1;rounded=0;labelBackgroundColor=none;fillColor=#66B2FF;" parent="tXQdEWdfQbnc47CWB7LX-115" vertex="1">
          <mxGeometry x="620" y="385" width="70" height="55" as="geometry" />
        </mxCell>
        <mxCell id="PmIRj_t8G00yRO6Npbwz-57" value="&lt;div style=&quot;font-size: 13px;&quot;&gt;&lt;font style=&quot;font-size: 16px;&quot;&gt;Notes&lt;/font&gt;&lt;/div&gt;" style="ellipse;whiteSpace=wrap;html=1;rounded=0;labelBackgroundColor=none;fillColor=#66B2FF;" parent="tXQdEWdfQbnc47CWB7LX-115" vertex="1">
          <mxGeometry x="700" y="385" width="70" height="55" as="geometry" />
        </mxCell>
        <mxCell id="PmIRj_t8G00yRO6Npbwz-65" value="" style="endArrow=none;html=1;rounded=0;exitX=0.5;exitY=0;exitDx=0;exitDy=0;" parent="tXQdEWdfQbnc47CWB7LX-115" source="tXQdEWdfQbnc47CWB7LX-87" edge="1">
          <mxGeometry width="50" height="50" relative="1" as="geometry">
            <mxPoint x="430" y="340" as="sourcePoint" />
            <mxPoint x="480" y="290" as="targetPoint" />
            <Array as="points">
              <mxPoint x="335" y="320" />
              <mxPoint x="480" y="320" />
            </Array>
          </mxGeometry>
        </mxCell>
        <mxCell id="PmIRj_t8G00yRO6Npbwz-66" value="" style="endArrow=none;html=1;rounded=0;exitX=0.5;exitY=0;exitDx=0;exitDy=0;" parent="tXQdEWdfQbnc47CWB7LX-115" source="PmIRj_t8G00yRO6Npbwz-29" edge="1">
          <mxGeometry width="50" height="50" relative="1" as="geometry">
            <mxPoint x="490" y="320" as="sourcePoint" />
            <mxPoint x="500" y="290" as="targetPoint" />
            <Array as="points">
              <mxPoint x="415" y="340" />
              <mxPoint x="500" y="340" />
            </Array>
          </mxGeometry>
        </mxCell>
        <mxCell id="PmIRj_t8G00yRO6Npbwz-68" value="" style="endArrow=none;html=1;rounded=0;exitX=0.5;exitY=0;exitDx=0;exitDy=0;" parent="tXQdEWdfQbnc47CWB7LX-115" source="PmIRj_t8G00yRO6Npbwz-55" edge="1">
          <mxGeometry width="50" height="50" relative="1" as="geometry">
            <mxPoint x="490" y="340" as="sourcePoint" />
            <mxPoint x="540" y="290" as="targetPoint" />
            <Array as="points">
              <mxPoint x="575" y="360" />
              <mxPoint x="540" y="360" />
            </Array>
          </mxGeometry>
        </mxCell>
        <mxCell id="PmIRj_t8G00yRO6Npbwz-69" value="" style="endArrow=none;html=1;rounded=0;exitX=0.5;exitY=0;exitDx=0;exitDy=0;" parent="tXQdEWdfQbnc47CWB7LX-115" source="PmIRj_t8G00yRO6Npbwz-56" edge="1">
          <mxGeometry width="50" height="50" relative="1" as="geometry">
            <mxPoint x="510" y="340" as="sourcePoint" />
            <mxPoint x="560" y="290" as="targetPoint" />
            <Array as="points">
              <mxPoint x="655" y="340" />
              <mxPoint x="560" y="340" />
            </Array>
          </mxGeometry>
        </mxCell>
        <mxCell id="PmIRj_t8G00yRO6Npbwz-70" value="" style="endArrow=none;html=1;rounded=0;exitX=0.5;exitY=0;exitDx=0;exitDy=0;" parent="tXQdEWdfQbnc47CWB7LX-115" source="PmIRj_t8G00yRO6Npbwz-57" edge="1">
          <mxGeometry width="50" height="50" relative="1" as="geometry">
            <mxPoint x="530" y="340" as="sourcePoint" />
            <mxPoint x="580" y="290" as="targetPoint" />
            <Array as="points">
              <mxPoint x="735" y="320" />
              <mxPoint x="580" y="320" />
            </Array>
          </mxGeometry>
        </mxCell>
        <mxCell id="PmIRj_t8G00yRO6Npbwz-67" value="" style="endArrow=none;html=1;rounded=0;exitX=0.5;exitY=0;exitDx=0;exitDy=0;" parent="1" source="PmIRj_t8G00yRO6Npbwz-30" edge="1">
          <mxGeometry width="50" height="50" relative="1" as="geometry">
            <mxPoint x="470" y="380" as="sourcePoint" />
            <mxPoint x="520" y="330" as="targetPoint" />
            <Array as="points">
              <mxPoint x="495" y="400" />
              <mxPoint x="520" y="400" />
            </Array>
          </mxGeometry>
        </mxCell>
      </root>
    </mxGraphModel>
  </diagram>
</mxfile>
